<svg xmlns="http://www.w3.org/2000/svg" width="512" height="512" viewBox="0 0 512 512" version="1.1">
	<path d="M 0 256.002 L 0 512.004 256.250 511.752 L 512.500 511.500 512.752 255.750 L 513.004 0 256.502 0 L 0 0 0 256.002 M 0.492 256.500 C 0.492 397.300, 0.608 454.751, 0.750 384.170 C 0.892 313.588, 0.892 198.388, 0.750 128.170 C 0.608 57.951, 0.492 115.700, 0.492 256.500 M 202.075 132.750 C 196.610 148.191, 170.175 173.915, 153.750 179.775 C 151.137 180.707, 149 181.746, 149 182.085 C 149 182.423, 151.588 184.958, 154.750 187.718 C 157.912 190.477, 171.300 202.711, 184.500 214.904 C 211.665 239.997, 209.081 238.721, 220.792 232.826 C 233.261 226.549, 246.145 211.830, 251.398 197.861 C 252.714 194.362, 254.329 187.941, 254.988 183.591 C 256.094 176.282, 256.048 175.606, 254.373 174.669 C 253.377 174.112, 242.048 163.608, 229.199 151.328 C 216.349 139.047, 205.288 129, 204.619 129 C 203.949 129, 202.805 130.688, 202.075 132.750 M 255.562 194.750 C 250.670 210.350, 240.183 224.430, 227.333 232.650 C 224.400 234.526, 222.032 236.385, 222.071 236.781 C 222.168 237.764, 239.100 252.544, 239.878 252.324 C 240.220 252.227, 241.207 251.873, 242.070 251.536 C 243.139 251.120, 248.249 254.931, 258.070 263.468 C 271.290 274.960, 272.500 276.293, 272.500 279.371 C 272.500 282.251, 273.519 283.676, 279.649 289.365 C 287.526 296.676, 289.434 297.238, 295 293.883 C 309.110 285.377, 322.548 266.349, 323.691 253.254 L 324.194 247.500 292.128 218.250 C 274.492 202.162, 259.456 189, 258.714 189 C 257.948 189, 256.586 191.484, 255.562 194.750 M 322.445 267.250 C 321.028 271.876, 312.787 282.959, 306.010 289.352 C 302.155 292.989, 299 296.139, 299 296.353 C 299 296.820, 334.828 328.183, 336.572 329.242 C 340.219 331.457, 351.926 322.331, 357.249 313.124 C 360.005 308.356, 362.931 301.092, 362.985 298.882 C 363.007 297.974, 325.105 265, 324.039 265 C 323.542 265, 322.825 266.012, 322.445 267.250 M 168.027 371.565 C 159.547 381.776, 151.572 391.249, 150.304 392.617 C 149.037 393.984, 148 395.475, 148 395.929 C 148 396.901, 150.906 399.466, 151.357 398.893 C 154.568 394.816, 181.278 363.460, 183.859 360.740 C 187.419 356.987, 187.422 356.977, 185.435 354.990 C 183.448 353.003, 183.419 353.031, 168.027 371.565 M 128.586 418.652 C 126.302 421.514, 126.012 422.394, 127.119 423.095 C 129.125 424.365, 129.358 424.280, 132.334 421.174 C 134.927 418.467, 134.965 418.278, 133.238 416.715 C 131.547 415.185, 131.255 415.307, 128.586 418.652" stroke="none" fill="black" fill-rule="evenodd"/>
</svg>